Patient4_TMGait_0pt2_03_left_19_EMG.mot
version=1
nRows=16
nColumns=33
inDegrees=no
endheader
time	1LAddLong	2LGlutMax	3LGlutMed	4LIliopsoas	5LSemiMemb	6LBicFemLong	7LRecFem	8LVastMed	9LVastLat	10LGasMed	11LTibAnt	12lTibPost	13LPeroneusLong	14LSol	15LExtDigLong	16LFlexDigLong	17RAddLong	18RGlutMax	19RGlutMed	20RIliopsoas	21RSemiMemb	22RBicFemLong	23RRecFem	24RVastMed	25RVastLat	26RGasMed	27RTibAnt	28RTibPost	29RPeroneusLong	30RSol	31RExtDigLong	32RFlexDigLong
41.195	-0.002136	0.014648	-0.078888	0.005951	0.00824	0.11169	-0.075989	0.00473	-0.011292	0.011139	-0.009613	0.017853	0.00061	0.012512	0.002441	-0.006409	-0.001221	0.048981	-0.92697	0.41138	-0.021973	-0.004578	0.075989	-0.10315	-0.19348	-0.000305	0.005798	-0.007019	0.02655	0.012512	-0.003662	-0.016479
41.196	0.003662	0.014038	-0.071564	0.006409	0.011444	0.09552	-0.12894	-0.007019	-0.10468	0.015411	-0.001373	0.018616	0.034485	0.030365	-0.010071	-0.006104	0.001221	0.009003	-1.4091	0.22171	-0.024414	0.010529	0.097046	-0.04776	-0.17624	0.000458	0.019531	-0.023346	-0.004578	0.007935	-0.007172	-0.010529
41.197	-0.002747	0.020294	-0.015259	0.009613	0.004578	-0.087433	-0.076141	-0.005493	-0.00885	0.055847	0.008392	0.017548	-0.042267	0.042267	-0.00351	-0.005341	0.007172	0.098114	-0.14618	-0.16281	-0.019379	-0.019684	0.10208	-0.083923	-0.10468	-0.000305	0.026245	-0.016937	-0.010529	0.014496	-0.002289	-0.01358
41.198	0.001526	0.005188	-0.014038	0.015564	0.004425	-0.072784	-0.034485	-0.003967	0.000305	0.08255	-0.046844	0.017853	-0.14023	0.049896	-0.00061	-0.003967	0.016632	0.13046	1.2337	-0.36285	0.034027	-0.016327	0.13229	-0.10712	-0.071259	0.002747	0.059662	-0.012054	-0.07782	-0.013275	-0.003357	-0.013275
41.199	-0.002594	-0.030365	-0.015869	0.009918	-0.013123	-0.057373	-0.010834	0.013428	-0.040436	0.037842	-0.019226	0.012665	-0.043488	0.020752	-0.015717	0.005951	0.00946	0.065613	0.75455	-0.20447	0.059967	-0.013123	0.13001	-0.12131	-0.035095	0.003052	0.074615	-0.018158	-0.10117	-0.00412	-0.003357	-0.024261
41.2	0.000153	-0.006714	-0.032196	0.008392	-0.007629	-0.084381	-0.026855	-0.037079	0.050507	0.019531	0.003967	0.019684	0.10315	0.022278	0.020142	-0.005798	0.001221	0.039673	0.57922	-0.084076	0.051422	-0.003967	0.068665	-0.12085	-0.012665	0.010986	0.056763	-0.02121	-0.070038	0.033722	0.001068	-0.016785
41.201	0.003052	-0.001373	-0.036163	-0.010376	0.032806	-0.08667	-0.024719	0.010986	0.057983	-0.000153	-0.014038	0.010834	0.10193	0.032043	0.057678	-0.00473	-0.008392	0.009613	0.5896	-0.065155	0.01709	0.007935	0.039215	-0.086517	0.091248	0.008392	0.088806	-0.028076	-0.001373	0.032806	-0.004272	-0.011139
41.202	0.000153	-0.001984	-0.0383	-0.001984	0.04364	-0.04425	0.045166	0.021362	-0.010681	-0.002441	0.018005	0.00885	0.003967	-0.007019	0.034485	0.000153	-0.001068	-0.002594	-0.018005	0.042419	-0.015259	0.005188	0.034027	0.027618	0.21896	-0.002136	0.063324	-0.022736	0.1474	-0.019989	-0.00351	-0.010223
41.203	-0.003357	-0.016327	-0.037537	-0.009308	0.031281	-0.053711	0.13001	0.022736	-0.070648	0.015717	0.018463	0.006409	-0.061646	-0.068359	-0.021362	-0.001526	-0.011292	0.009613	0.12558	0.079041	-0.04364	0.014954	0.080261	0.092926	0.15839	-0.011597	-0.015259	-0.020294	0.21332	-0.018768	-0.001221	-0.001526
41.204	0.008698	0	-0.032501	0.00824	0.016174	-0.006866	0.11841	0.017242	-0.048981	0.020752	-0.016327	0.00946	-0.026398	0.034637	-0.027008	0.014038	-0.012817	-0.016785	0.34271	-0.11963	-0.03006	0.020447	0.14557	0.015259	0.056152	-0.011139	-0.018311	-0.031586	0.075378	-0.018158	-0.002289	0.00473
41.205	0.007019	0.041504	0.042572	0.006866	0.006409	0.037079	0.10559	0.007477	-0.078888	0.033112	-0.018768	0.012665	-0.012665	0.088654	-0.065613	-0.001373	-0.016785	-0.022888	0.28961	-0.1091	0.056763	0.036469	0.18951	-0.015717	-0.062714	-0.010223	-0.007477	-0.027924	-0.024872	-0.007935	-0.004272	0.002136
41.206	0.004578	0.007324	0.050049	-0.000458	0.008392	0.076752	0.074615	0.013885	-0.18662	0.068665	-0.039825	0.010529	-0.044098	0.11261	-0.081177	-0.009766	-0.012665	-0.016022	0.10468	0.3009	0.097046	0.027313	0.25848	-0.10132	-0.12085	0.002136	0.007782	-0.020599	-0.002136	-0.019379	0.000916	-0.003967
41.207	0.014954	-0.043182	0.031738	0.013123	0.019531	0.061646	-0.1593	0.010071	-0.20783	0.072327	-0.047607	0.003662	0.000916	0.084991	-0.027924	-0.006561	-0.011444	-0.042114	-0.04425	0.56549	0.11307	-0.001678	0.25497	-0.071259	-0.10666	0	0.024872	-0.02182	-0.002747	-0.02243	0.000153	0.001221
41.208	0.017242	-0.009003	-0.0177	0.015717	0.034027	0.070038	-0.16754	-0.028381	-0.1648	0.039673	-0.06012	0.011292	-0.016479	-0.054169	0.071106	-0.003815	-0.008698	-0.057831	-0.22171	0.46341	0.073547	-0.007935	0.28473	-0.049744	-0.095673	-0.001831	0.028381	-0.032501	0.012512	-0.008698	-0.002136	0.001068
41.209	0.005188	0.01297	-0.043945	-0.002136	0.031433	0.11124	-0.10696	-0.020599	-0.058899	0.044861	-0.072632	0.015717	-0.15305	-0.095673	0.14648	-0.000763	0.001068	0.025787	0.036774	0.16449	0.061798	0.009308	0.25452	-0.10849	-0.1358	-0.002136	0.027924	-0.028534	-0.009308	0.006714	0.010529	0.002747
41.21	0.002289	0.014954	-0.07309	0.003357	0.01358	0.1236	-0.095062	-0.00946	-0.012512	0.000305	-0.0383	0.014648	0.13367	-0.11475	0.1532	-0.000305	-0.011444	-0.018311	0.031433	-0.2504	0.05188	0.016479	0.010223	-0.12009	-0.11276	-0.005646	0.041504	-0.031586	-0.018311	-0.009155	-0.005035	-0.003815
